<?xml version="1.0" encoding="utf-8"?>
<!-- Generator: Adobe Illustrator 23.0.3, SVG Export Plug-In . SVG Version: 6.00 Build 0)  -->
<svg version="1.1" id="圖層_1" xmlns="http://www.w3.org/2000/svg" xmlns:xlink="http://www.w3.org/1999/xlink" x="0px" y="0px"
	 viewBox="0 0 512 585.1" style="enable-background:new 0 0 512 585.1;" xml:space="preserve">
<path d="M502.3,269.8L278.9,46.2c-12.9-12.9-33.8-12.9-46.6,0l-46.5,46.4l58.9,58.9c30.9-10.4,60.2,19.2,49.6,49.9l56.8,56.8
	c39.1-13.5,69.9,35.4,40.5,64.8c-30.3,30.3-80.2-3.3-64-42.7l-53-52.9v139.3c28.9,14.3,25.4,47.8,10.4,62.9
	c-15.3,15.3-40.2,15.3-55.5,0c-20.1-20.1-12.7-53.6,12.9-64V225c-23.8-9.7-28.1-35.1-21.3-51.4l-58-58.1L9.7,268.7
	c-12.9,12.9-12.9,33.8,0,46.6l223.6,223.5c12.9,12.9,33.7,12.9,46.6,0l222.5-222.5C515.2,303.5,515.2,282.7,502.3,269.8L502.3,269.8
	z"/>
</svg>
