<?xml version="1.0" encoding="utf-8"?>
<!-- Generator: Adobe Illustrator 23.0.3, SVG Export Plug-In . SVG Version: 6.00 Build 0)  -->
<svg version="1.1" id="圖層_1" xmlns="http://www.w3.org/2000/svg" xmlns:xlink="http://www.w3.org/1999/xlink" x="0px" y="0px"
	 viewBox="0 0 512 585.1" style="enable-background:new 0 0 512 585.1;" xml:space="preserve">
<path d="M457.1,36.6H54.9C24.6,36.6,0,61.1,0,91.4v402.3c0,30.3,24.6,54.9,54.9,54.9h402.3c30.3,0,54.9-24.6,54.9-54.9V91.4
	C512,61.1,487.4,36.6,457.1,36.6z M278.6,435.9c0,49.8-29.3,72.6-71.9,72.6c-38.5,0-60.8-19.9-72.2-44l39.2-23.7
	c7.5,13.4,14.4,24.7,31,24.7c15.8,0,25.8-6.2,25.8-30.3V271.7h48.1L278.6,435.9L278.6,435.9z M392.5,508.5
	c-44.7,0-73.6-21.3-87.7-49.1l39.2-22.6c10.3,16.8,23.8,29.3,47.4,29.3c19.9,0,32.7-9.9,32.7-23.8c0-16.5-13-22.3-35.1-32l-12-5.1
	c-34.7-14.7-57.7-33.4-57.7-72.6c0-36.1,27.5-63.5,70.4-63.5c30.6,0,52.6,10.6,68.3,38.5l-37.5,24c-8.2-14.7-17.1-20.6-31-20.6
	c-14.1,0-23,8.9-23,20.6c0,14.4,8.9,20.2,29.6,29.3l12,5.1c40.9,17.5,63.9,35.4,63.9,75.7C472.1,484.7,438.1,508.5,392.5,508.5
	L392.5,508.5z"/>
</svg>
