<?xml version="1.0" encoding="utf-8"?>
<!-- Generator: Adobe Illustrator 23.0.3, SVG Export Plug-In . SVG Version: 6.00 Build 0)  -->
<svg version="1.1" id="圖層_1" xmlns="http://www.w3.org/2000/svg" xmlns:xlink="http://www.w3.org/1999/xlink" x="0px" y="0px"
	 viewBox="0 0 512 312.9" style="enable-background:new 0 0 512 312.9;" xml:space="preserve">
<style type="text/css">
	.st0{clip-path:url(#SVGID_2_);}
	.st1{fill-rule:evenodd;clip-rule:evenodd;}
</style>
<g>
	<defs>
		<rect id="SVGID_1_" y="2.8" width="512" height="307.2"/>
	</defs>
	<clipPath id="SVGID_2_">
		<use xlink:href="#SVGID_1_"  style="overflow:visible;"/>
	</clipPath>
	<g class="st0">
		<path class="st1" d="M256,2.8c-68.3,0-110.9,34.1-128,102.4c25.6-34.1,55.5-46.9,89.6-38.4c19.5,4.9,33.4,19,48.8,34.6
			c25.1,25.5,54.1,55,117.6,55c68.3,0,110.9-34.1,128-102.4c-25.6,34.1-55.5,46.9-89.6,38.4c-19.5-4.9-33.4-19-48.8-34.6
			C348.5,32.3,319.5,2.8,256,2.8z M128,156.4c-68.3,0-110.9,34.1-128,102.4c25.6-34.1,55.5-46.9,89.6-38.4
			c19.5,4.9,33.4,19,48.8,34.6c25.1,25.5,54.1,55,117.6,55c68.3,0,110.9-34.1,128-102.4c-25.6,34.1-55.5,46.9-89.6,38.4
			c-19.5-4.9-33.4-19-48.8-34.6C220.5,185.9,191.5,156.4,128,156.4z"/>
	</g>
</g>
</svg>
